<?xml version="1.0" encoding="UTF-8" standalone="no"?>
<svg
   xmlns="http://www.w3.org/2000/svg"
   xmlns:xlink="http://www.w3.org/1999/xlink"
   width="210mm"
   height="297mm"
   viewBox="0 0 210 297">
  <defs>
    <rect id="r" x="0" y="0" height="10" width="10"
	  fill="none" stroke="black" stroke-width="0.1"/>
    <g id="r1">
      <use xlink:href="#r"/>
    </g>
    <g id="r2">
      <use xlink:href="#r"/>
    </g>
    <g id="r3">
      <use xlink:href="#r"/>
    </g>
    <g id="r4">
      <use xlink:href="#r"/>
    </g>
    <g id="r5">
      <use xlink:href="#r"/>
    </g>
    <g id="r6">
      <use xlink:href="#r"/>
    </g>
    <g id="r7">
      <use xlink:href="#r"/>
    </g>
    <g id="r8">
      <use xlink:href="#r"/>
    </g>
    <g id="r9">
      <use xlink:href="#r"/>
    </g>
    <g id="r0">
      <use xlink:href="#r"/>
    </g>
  </defs>
  <g>
    <use xlink:href="#r6" transform="translate(00,00)"/>
    <use xlink:href="#r0" transform="translate(10,00)"/>
    <use xlink:href="#r9" transform="translate(20,00)"/>
    <use xlink:href="#r3" transform="translate(30,00)"/>
    <use xlink:href="#r7" transform="translate(40,00)"/>
    <use xlink:href="#r2" transform="translate(50,00)"/>
    <use xlink:href="#r9" transform="translate(60,00)"/>
    <use xlink:href="#r9" transform="translate(70,00)"/>
    <use xlink:href="#r5" transform="translate(80,00)"/>
    <use xlink:href="#r9" transform="translate(90,00)"/>
    <use xlink:href="#r7" transform="translate(100,00)"/>
    <use xlink:href="#r4" transform="translate(110,00)"/>
    <use xlink:href="#r3" transform="translate(120,00)"/>
    <use xlink:href="#r5" transform="translate(130,00)"/>
    <use xlink:href="#r0" transform="translate(140,00)"/>
    <use xlink:href="#r4" transform="translate(150,00)"/>
    <use xlink:href="#r0" transform="translate(160,00)"/>
    <use xlink:href="#r5" transform="translate(170,00)"/>
    <use xlink:href="#r2" transform="translate(180,00)"/>
    <use xlink:href="#r9" transform="translate(190,00)"/>
    <use xlink:href="#r7" transform="translate(00,10)"/>
    <use xlink:href="#r7" transform="translate(10,10)"/>
    <use xlink:href="#r8" transform="translate(20,10)"/>
    <use xlink:href="#r8" transform="translate(30,10)"/>
    <use xlink:href="#r1" transform="translate(40,10)"/>
    <use xlink:href="#r0" transform="translate(50,10)"/>
    <use xlink:href="#r1" transform="translate(60,10)"/>
    <use xlink:href="#r7" transform="translate(70,10)"/>
    <use xlink:href="#r6" transform="translate(80,10)"/>
    <use xlink:href="#r1" transform="translate(90,10)"/>
    <use xlink:href="#r7" transform="translate(100,10)"/>
    <use xlink:href="#r6" transform="translate(110,10)"/>
    <use xlink:href="#r9" transform="translate(120,10)"/>
    <use xlink:href="#r8" transform="translate(130,10)"/>
    <use xlink:href="#r4" transform="translate(140,10)"/>
    <use xlink:href="#r8" transform="translate(150,10)"/>
    <use xlink:href="#r5" transform="translate(160,10)"/>
    <use xlink:href="#r1" transform="translate(170,10)"/>
    <use xlink:href="#r1" transform="translate(180,10)"/>
    <use xlink:href="#r0" transform="translate(190,10)"/>
    <use xlink:href="#r6" transform="translate(00,20)"/>
    <use xlink:href="#r7" transform="translate(10,20)"/>
    <use xlink:href="#r8" transform="translate(20,20)"/>
    <use xlink:href="#r5" transform="translate(30,20)"/>
    <use xlink:href="#r7" transform="translate(40,20)"/>
    <use xlink:href="#r7" transform="translate(50,20)"/>
    <use xlink:href="#r6" transform="translate(60,20)"/>
    <use xlink:href="#r5" transform="translate(70,20)"/>
    <use xlink:href="#r9" transform="translate(80,20)"/>
    <use xlink:href="#r9" transform="translate(90,20)"/>
    <use xlink:href="#r3" transform="translate(100,20)"/>
    <use xlink:href="#r5" transform="translate(110,20)"/>
    <use xlink:href="#r9" transform="translate(120,20)"/>
    <use xlink:href="#r0" transform="translate(130,20)"/>
    <use xlink:href="#r8" transform="translate(140,20)"/>
    <use xlink:href="#r1" transform="translate(150,20)"/>
    <use xlink:href="#r3" transform="translate(160,20)"/>
    <use xlink:href="#r7" transform="translate(170,20)"/>
    <use xlink:href="#r7" transform="translate(180,20)"/>
    <use xlink:href="#r9" transform="translate(190,20)"/>
    <use xlink:href="#r7" transform="translate(00,30)"/>
    <use xlink:href="#r1" transform="translate(10,30)"/>
    <use xlink:href="#r3" transform="translate(20,30)"/>
    <use xlink:href="#r7" transform="translate(30,30)"/>
    <use xlink:href="#r1" transform="translate(40,30)"/>
    <use xlink:href="#r4" transform="translate(50,30)"/>
    <use xlink:href="#r6" transform="translate(60,30)"/>
    <use xlink:href="#r4" transform="translate(70,30)"/>
    <use xlink:href="#r7" transform="translate(80,30)"/>
    <use xlink:href="#r5" transform="translate(90,30)"/>
    <use xlink:href="#r9" transform="translate(100,30)"/>
    <use xlink:href="#r4" transform="translate(110,30)"/>
    <use xlink:href="#r3" transform="translate(120,30)"/>
    <use xlink:href="#r9" transform="translate(130,30)"/>
    <use xlink:href="#r1" transform="translate(140,30)"/>
    <use xlink:href="#r3" transform="translate(150,30)"/>
    <use xlink:href="#r6" transform="translate(160,30)"/>
    <use xlink:href="#r5" transform="translate(170,30)"/>
    <use xlink:href="#r6" transform="translate(180,30)"/>
    <use xlink:href="#r0" transform="translate(190,30)"/>
    <use xlink:href="#r9" transform="translate(00,40)"/>
    <use xlink:href="#r0" transform="translate(10,40)"/>
    <use xlink:href="#r3" transform="translate(20,40)"/>
    <use xlink:href="#r2" transform="translate(30,40)"/>
    <use xlink:href="#r1" transform="translate(40,40)"/>
    <use xlink:href="#r0" transform="translate(50,40)"/>
    <use xlink:href="#r5" transform="translate(60,40)"/>
    <use xlink:href="#r9" transform="translate(70,40)"/>
    <use xlink:href="#r6" transform="translate(80,40)"/>
    <use xlink:href="#r3" transform="translate(90,40)"/>
    <use xlink:href="#r4" transform="translate(100,40)"/>
    <use xlink:href="#r9" transform="translate(110,40)"/>
    <use xlink:href="#r5" transform="translate(120,40)"/>
    <use xlink:href="#r0" transform="translate(130,40)"/>
    <use xlink:href="#r1" transform="translate(140,40)"/>
    <use xlink:href="#r8" transform="translate(150,40)"/>
    <use xlink:href="#r1" transform="translate(160,40)"/>
    <use xlink:href="#r0" transform="translate(170,40)"/>
    <use xlink:href="#r1" transform="translate(180,40)"/>
    <use xlink:href="#r5" transform="translate(190,40)"/>
    <use xlink:href="#r0" transform="translate(00,50)"/>
    <use xlink:href="#r1" transform="translate(10,50)"/>
    <use xlink:href="#r2" transform="translate(20,50)"/>
    <use xlink:href="#r7" transform="translate(30,50)"/>
    <use xlink:href="#r5" transform="translate(40,50)"/>
    <use xlink:href="#r5" transform="translate(50,50)"/>
    <use xlink:href="#r6" transform="translate(60,50)"/>
    <use xlink:href="#r3" transform="translate(70,50)"/>
    <use xlink:href="#r9" transform="translate(80,50)"/>
    <use xlink:href="#r5" transform="translate(90,50)"/>
    <use xlink:href="#r0" transform="translate(100,50)"/>
    <use xlink:href="#r8" transform="translate(110,50)"/>
    <use xlink:href="#r9" transform="translate(120,50)"/>
    <use xlink:href="#r9" transform="translate(130,50)"/>
    <use xlink:href="#r3" transform="translate(140,50)"/>
    <use xlink:href="#r7" transform="translate(150,50)"/>
    <use xlink:href="#r9" transform="translate(160,50)"/>
    <use xlink:href="#r7" transform="translate(170,50)"/>
    <use xlink:href="#r7" transform="translate(180,50)"/>
    <use xlink:href="#r2" transform="translate(190,50)"/>
    <use xlink:href="#r2" transform="translate(00,60)"/>
    <use xlink:href="#r3" transform="translate(10,60)"/>
    <use xlink:href="#r2" transform="translate(20,60)"/>
    <use xlink:href="#r6" transform="translate(30,60)"/>
    <use xlink:href="#r6" transform="translate(40,60)"/>
    <use xlink:href="#r9" transform="translate(50,60)"/>
    <use xlink:href="#r3" transform="translate(60,60)"/>
    <use xlink:href="#r9" transform="translate(70,60)"/>
    <use xlink:href="#r0" transform="translate(80,60)"/>
    <use xlink:href="#r0" transform="translate(90,60)"/>
    <use xlink:href="#r7" transform="translate(100,60)"/>
    <use xlink:href="#r9" transform="translate(110,60)"/>
    <use xlink:href="#r0" transform="translate(120,60)"/>
    <use xlink:href="#r4" transform="translate(130,60)"/>
    <use xlink:href="#r8" transform="translate(140,60)"/>
    <use xlink:href="#r2" transform="translate(150,60)"/>
    <use xlink:href="#r6" transform="translate(160,60)"/>
    <use xlink:href="#r9" transform="translate(170,60)"/>
    <use xlink:href="#r8" transform="translate(180,60)"/>
    <use xlink:href="#r2" transform="translate(190,60)"/>
    <use xlink:href="#r1" transform="translate(00,70)"/>
    <use xlink:href="#r5" transform="translate(10,70)"/>
    <use xlink:href="#r6" transform="translate(20,70)"/>
    <use xlink:href="#r3" transform="translate(30,70)"/>
    <use xlink:href="#r3" transform="translate(40,70)"/>
    <use xlink:href="#r3" transform="translate(50,70)"/>
    <use xlink:href="#r5" transform="translate(60,70)"/>
    <use xlink:href="#r8" transform="translate(70,70)"/>
    <use xlink:href="#r7" transform="translate(80,70)"/>
    <use xlink:href="#r4" transform="translate(90,70)"/>
    <use xlink:href="#r7" transform="translate(100,70)"/>
    <use xlink:href="#r3" transform="translate(110,70)"/>
    <use xlink:href="#r6" transform="translate(120,70)"/>
    <use xlink:href="#r3" transform="translate(130,70)"/>
    <use xlink:href="#r5" transform="translate(140,70)"/>
    <use xlink:href="#r2" transform="translate(150,70)"/>
    <use xlink:href="#r2" transform="translate(160,70)"/>
    <use xlink:href="#r9" transform="translate(170,70)"/>
    <use xlink:href="#r4" transform="translate(180,70)"/>
    <use xlink:href="#r6" transform="translate(190,70)"/>
    <use xlink:href="#r7" transform="translate(00,80)"/>
    <use xlink:href="#r6" transform="translate(10,80)"/>
    <use xlink:href="#r2" transform="translate(20,80)"/>
    <use xlink:href="#r4" transform="translate(30,80)"/>
    <use xlink:href="#r9" transform="translate(40,80)"/>
    <use xlink:href="#r8" transform="translate(50,80)"/>
    <use xlink:href="#r9" transform="translate(60,80)"/>
    <use xlink:href="#r5" transform="translate(70,80)"/>
    <use xlink:href="#r4" transform="translate(80,80)"/>
    <use xlink:href="#r8" transform="translate(90,80)"/>
    <use xlink:href="#r3" transform="translate(100,80)"/>
    <use xlink:href="#r6" transform="translate(110,80)"/>
    <use xlink:href="#r8" transform="translate(120,80)"/>
    <use xlink:href="#r7" transform="translate(130,80)"/>
    <use xlink:href="#r3" transform="translate(140,80)"/>
    <use xlink:href="#r8" transform="translate(150,80)"/>
    <use xlink:href="#r2" transform="translate(160,80)"/>
    <use xlink:href="#r3" transform="translate(170,80)"/>
    <use xlink:href="#r6" transform="translate(180,80)"/>
    <use xlink:href="#r3" transform="translate(190,80)"/>
    <use xlink:href="#r3" transform="translate(00,90)"/>
    <use xlink:href="#r0" transform="translate(10,90)"/>
    <use xlink:href="#r3" transform="translate(20,90)"/>
    <use xlink:href="#r2" transform="translate(30,90)"/>
    <use xlink:href="#r2" transform="translate(40,90)"/>
    <use xlink:href="#r4" transform="translate(50,90)"/>
    <use xlink:href="#r6" transform="translate(60,90)"/>
    <use xlink:href="#r4" transform="translate(70,90)"/>
    <use xlink:href="#r3" transform="translate(80,90)"/>
    <use xlink:href="#r7" transform="translate(90,90)"/>
    <use xlink:href="#r7" transform="translate(100,90)"/>
    <use xlink:href="#r0" transform="translate(110,90)"/>
    <use xlink:href="#r8" transform="translate(120,90)"/>
    <use xlink:href="#r8" transform="translate(130,90)"/>
    <use xlink:href="#r7" transform="translate(140,90)"/>
    <use xlink:href="#r5" transform="translate(150,90)"/>
    <use xlink:href="#r1" transform="translate(160,90)"/>
    <use xlink:href="#r5" transform="translate(170,90)"/>
    <use xlink:href="#r0" transform="translate(180,90)"/>
    <use xlink:href="#r9" transform="translate(190,90)"/>
    <use xlink:href="#r9" transform="translate(00,100)"/>
    <use xlink:href="#r2" transform="translate(10,100)"/>
    <use xlink:href="#r0" transform="translate(20,100)"/>
    <use xlink:href="#r2" transform="translate(30,100)"/>
    <use xlink:href="#r8" transform="translate(40,100)"/>
    <use xlink:href="#r3" transform="translate(50,100)"/>
    <use xlink:href="#r3" transform="translate(60,100)"/>
    <use xlink:href="#r4" transform="translate(70,100)"/>
    <use xlink:href="#r0" transform="translate(80,100)"/>
    <use xlink:href="#r7" transform="translate(90,100)"/>
    <use xlink:href="#r3" transform="translate(100,100)"/>
    <use xlink:href="#r6" transform="translate(110,100)"/>
    <use xlink:href="#r2" transform="translate(120,100)"/>
    <use xlink:href="#r7" transform="translate(130,100)"/>
    <use xlink:href="#r0" transform="translate(140,100)"/>
    <use xlink:href="#r7" transform="translate(150,100)"/>
    <use xlink:href="#r4" transform="translate(160,100)"/>
    <use xlink:href="#r6" transform="translate(170,100)"/>
    <use xlink:href="#r1" transform="translate(180,100)"/>
    <use xlink:href="#r4" transform="translate(190,100)"/>
    <use xlink:href="#r9" transform="translate(00,110)"/>
    <use xlink:href="#r3" transform="translate(10,110)"/>
    <use xlink:href="#r3" transform="translate(20,110)"/>
    <use xlink:href="#r5" transform="translate(30,110)"/>
    <use xlink:href="#r4" transform="translate(40,110)"/>
    <use xlink:href="#r6" transform="translate(50,110)"/>
    <use xlink:href="#r0" transform="translate(60,110)"/>
    <use xlink:href="#r5" transform="translate(70,110)"/>
    <use xlink:href="#r7" transform="translate(80,110)"/>
    <use xlink:href="#r9" transform="translate(90,110)"/>
    <use xlink:href="#r9" transform="translate(100,110)"/>
    <use xlink:href="#r2" transform="translate(110,110)"/>
    <use xlink:href="#r6" transform="translate(120,110)"/>
    <use xlink:href="#r8" transform="translate(130,110)"/>
    <use xlink:href="#r2" transform="translate(140,110)"/>
    <use xlink:href="#r4" transform="translate(150,110)"/>
    <use xlink:href="#r4" transform="translate(160,110)"/>
    <use xlink:href="#r8" transform="translate(170,110)"/>
    <use xlink:href="#r7" transform="translate(180,110)"/>
    <use xlink:href="#r3" transform="translate(190,110)"/>
    <use xlink:href="#r0" transform="translate(00,120)"/>
    <use xlink:href="#r8" transform="translate(10,120)"/>
    <use xlink:href="#r5" transform="translate(20,120)"/>
    <use xlink:href="#r0" transform="translate(30,120)"/>
    <use xlink:href="#r1" transform="translate(40,120)"/>
    <use xlink:href="#r1" transform="translate(50,120)"/>
    <use xlink:href="#r5" transform="translate(60,120)"/>
    <use xlink:href="#r7" transform="translate(70,120)"/>
    <use xlink:href="#r5" transform="translate(80,120)"/>
    <use xlink:href="#r6" transform="translate(90,120)"/>
    <use xlink:href="#r6" transform="translate(100,120)"/>
    <use xlink:href="#r2" transform="translate(110,120)"/>
    <use xlink:href="#r6" transform="translate(120,120)"/>
    <use xlink:href="#r3" transform="translate(130,120)"/>
    <use xlink:href="#r4" transform="translate(140,120)"/>
    <use xlink:href="#r8" transform="translate(150,120)"/>
    <use xlink:href="#r3" transform="translate(160,120)"/>
    <use xlink:href="#r4" transform="translate(170,120)"/>
    <use xlink:href="#r4" transform="translate(180,120)"/>
    <use xlink:href="#r7" transform="translate(190,120)"/>
    <use xlink:href="#r6" transform="translate(00,130)"/>
    <use xlink:href="#r6" transform="translate(10,130)"/>
    <use xlink:href="#r9" transform="translate(20,130)"/>
    <use xlink:href="#r4" transform="translate(30,130)"/>
    <use xlink:href="#r8" transform="translate(40,130)"/>
    <use xlink:href="#r0" transform="translate(50,130)"/>
    <use xlink:href="#r6" transform="translate(60,130)"/>
    <use xlink:href="#r6" transform="translate(70,130)"/>
    <use xlink:href="#r6" transform="translate(80,130)"/>
    <use xlink:href="#r9" transform="translate(90,130)"/>
    <use xlink:href="#r6" transform="translate(100,130)"/>
    <use xlink:href="#r2" transform="translate(110,130)"/>
    <use xlink:href="#r6" transform="translate(120,130)"/>
    <use xlink:href="#r5" transform="translate(130,130)"/>
    <use xlink:href="#r4" transform="translate(140,130)"/>
    <use xlink:href="#r0" transform="translate(150,130)"/>
    <use xlink:href="#r7" transform="translate(160,130)"/>
    <use xlink:href="#r1" transform="translate(170,130)"/>
    <use xlink:href="#r3" transform="translate(180,130)"/>
    <use xlink:href="#r6" transform="translate(190,130)"/>
    <use xlink:href="#r5" transform="translate(00,140)"/>
    <use xlink:href="#r2" transform="translate(10,140)"/>
    <use xlink:href="#r4" transform="translate(20,140)"/>
    <use xlink:href="#r1" transform="translate(30,140)"/>
    <use xlink:href="#r4" transform="translate(40,140)"/>
    <use xlink:href="#r7" transform="translate(50,140)"/>
    <use xlink:href="#r8" transform="translate(60,140)"/>
    <use xlink:href="#r0" transform="translate(70,140)"/>
    <use xlink:href="#r7" transform="translate(80,140)"/>
    <use xlink:href="#r5" transform="translate(90,140)"/>
    <use xlink:href="#r0" transform="translate(100,140)"/>
    <use xlink:href="#r1" transform="translate(110,140)"/>
    <use xlink:href="#r1" transform="translate(120,140)"/>
    <use xlink:href="#r0" transform="translate(130,140)"/>
    <use xlink:href="#r9" transform="translate(140,140)"/>
    <use xlink:href="#r2" transform="translate(150,140)"/>
    <use xlink:href="#r1" transform="translate(160,140)"/>
    <use xlink:href="#r0" transform="translate(170,140)"/>
    <use xlink:href="#r3" transform="translate(180,140)"/>
    <use xlink:href="#r4" transform="translate(190,140)"/>
    <use xlink:href="#r7" transform="translate(00,150)"/>
    <use xlink:href="#r5" transform="translate(10,150)"/>
    <use xlink:href="#r5" transform="translate(20,150)"/>
    <use xlink:href="#r1" transform="translate(30,150)"/>
    <use xlink:href="#r9" transform="translate(40,150)"/>
    <use xlink:href="#r7" transform="translate(50,150)"/>
    <use xlink:href="#r7" transform="translate(60,150)"/>
    <use xlink:href="#r4" transform="translate(70,150)"/>
    <use xlink:href="#r4" transform="translate(80,150)"/>
    <use xlink:href="#r5" transform="translate(90,150)"/>
    <use xlink:href="#r3" transform="translate(100,150)"/>
    <use xlink:href="#r5" transform="translate(110,150)"/>
    <use xlink:href="#r4" transform="translate(120,150)"/>
    <use xlink:href="#r7" transform="translate(130,150)"/>
    <use xlink:href="#r9" transform="translate(140,150)"/>
    <use xlink:href="#r5" transform="translate(150,150)"/>
    <use xlink:href="#r5" transform="translate(160,150)"/>
    <use xlink:href="#r9" transform="translate(170,150)"/>
    <use xlink:href="#r4" transform="translate(180,150)"/>
    <use xlink:href="#r7" transform="translate(190,150)"/>
    <use xlink:href="#r2" transform="translate(00,160)"/>
    <use xlink:href="#r1" transform="translate(10,160)"/>
    <use xlink:href="#r0" transform="translate(20,160)"/>
    <use xlink:href="#r7" transform="translate(30,160)"/>
    <use xlink:href="#r0" transform="translate(40,160)"/>
    <use xlink:href="#r2" transform="translate(50,160)"/>
    <use xlink:href="#r3" transform="translate(60,160)"/>
    <use xlink:href="#r0" transform="translate(70,160)"/>
    <use xlink:href="#r3" transform="translate(80,160)"/>
    <use xlink:href="#r9" transform="translate(90,160)"/>
    <use xlink:href="#r2" transform="translate(100,160)"/>
    <use xlink:href="#r2" transform="translate(110,160)"/>
    <use xlink:href="#r2" transform="translate(120,160)"/>
    <use xlink:href="#r1" transform="translate(130,160)"/>
    <use xlink:href="#r8" transform="translate(140,160)"/>
    <use xlink:href="#r6" transform="translate(150,160)"/>
    <use xlink:href="#r0" transform="translate(160,160)"/>
    <use xlink:href="#r1" transform="translate(170,160)"/>
    <use xlink:href="#r6" transform="translate(180,160)"/>
    <use xlink:href="#r2" transform="translate(190,160)"/>
    <use xlink:href="#r5" transform="translate(00,170)"/>
    <use xlink:href="#r1" transform="translate(10,170)"/>
    <use xlink:href="#r7" transform="translate(20,170)"/>
    <use xlink:href="#r2" transform="translate(30,170)"/>
    <use xlink:href="#r6" transform="translate(40,170)"/>
    <use xlink:href="#r8" transform="translate(50,170)"/>
    <use xlink:href="#r7" transform="translate(60,170)"/>
    <use xlink:href="#r1" transform="translate(70,170)"/>
    <use xlink:href="#r4" transform="translate(80,170)"/>
    <use xlink:href="#r1" transform="translate(90,170)"/>
    <use xlink:href="#r8" transform="translate(100,170)"/>
    <use xlink:href="#r4" transform="translate(110,170)"/>
    <use xlink:href="#r7" transform="translate(120,170)"/>
    <use xlink:href="#r5" transform="translate(130,170)"/>
    <use xlink:href="#r2" transform="translate(140,170)"/>
    <use xlink:href="#r4" transform="translate(150,170)"/>
    <use xlink:href="#r3" transform="translate(160,170)"/>
    <use xlink:href="#r8" transform="translate(170,170)"/>
    <use xlink:href="#r6" transform="translate(180,170)"/>
    <use xlink:href="#r6" transform="translate(190,170)"/>
    <use xlink:href="#r7" transform="translate(00,180)"/>
    <use xlink:href="#r0" transform="translate(10,180)"/>
    <use xlink:href="#r2" transform="translate(20,180)"/>
    <use xlink:href="#r0" transform="translate(30,180)"/>
    <use xlink:href="#r9" transform="translate(40,180)"/>
    <use xlink:href="#r7" transform="translate(50,180)"/>
    <use xlink:href="#r7" transform="translate(60,180)"/>
    <use xlink:href="#r6" transform="translate(70,180)"/>
    <use xlink:href="#r3" transform="translate(80,180)"/>
    <use xlink:href="#r0" transform="translate(90,180)"/>
    <use xlink:href="#r0" transform="translate(100,180)"/>
    <use xlink:href="#r1" transform="translate(110,180)"/>
    <use xlink:href="#r1" transform="translate(120,180)"/>
    <use xlink:href="#r1" transform="translate(130,180)"/>
    <use xlink:href="#r6" transform="translate(140,180)"/>
    <use xlink:href="#r0" transform="translate(150,180)"/>
    <use xlink:href="#r1" transform="translate(160,180)"/>
    <use xlink:href="#r0" transform="translate(170,180)"/>
    <use xlink:href="#r9" transform="translate(180,180)"/>
    <use xlink:href="#r9" transform="translate(190,180)"/>
    <use xlink:href="#r5" transform="translate(00,190)"/>
    <use xlink:href="#r2" transform="translate(10,190)"/>
    <use xlink:href="#r1" transform="translate(20,190)"/>
    <use xlink:href="#r5" transform="translate(30,190)"/>
    <use xlink:href="#r0" transform="translate(40,190)"/>
    <use xlink:href="#r6" transform="translate(50,190)"/>
    <use xlink:href="#r1" transform="translate(60,190)"/>
    <use xlink:href="#r8" transform="translate(70,190)"/>
    <use xlink:href="#r1" transform="translate(80,190)"/>
    <use xlink:href="#r9" transform="translate(90,190)"/>
    <use xlink:href="#r0" transform="translate(100,190)"/>
    <use xlink:href="#r1" transform="translate(110,190)"/>
    <use xlink:href="#r1" transform="translate(120,190)"/>
    <use xlink:href="#r4" transform="translate(130,190)"/>
    <use xlink:href="#r5" transform="translate(140,190)"/>
    <use xlink:href="#r8" transform="translate(150,190)"/>
    <use xlink:href="#r6" transform="translate(160,190)"/>
    <use xlink:href="#r2" transform="translate(170,190)"/>
    <use xlink:href="#r0" transform="translate(180,190)"/>
    <use xlink:href="#r3" transform="translate(190,190)"/>
    <use xlink:href="#r4" transform="translate(00,200)"/>
    <use xlink:href="#r6" transform="translate(10,200)"/>
    <use xlink:href="#r6" transform="translate(20,200)"/>
    <use xlink:href="#r2" transform="translate(30,200)"/>
    <use xlink:href="#r2" transform="translate(40,200)"/>
    <use xlink:href="#r2" transform="translate(50,200)"/>
    <use xlink:href="#r7" transform="translate(60,200)"/>
    <use xlink:href="#r5" transform="translate(70,200)"/>
    <use xlink:href="#r2" transform="translate(80,200)"/>
    <use xlink:href="#r9" transform="translate(90,200)"/>
    <use xlink:href="#r9" transform="translate(100,200)"/>
    <use xlink:href="#r8" transform="translate(110,200)"/>
    <use xlink:href="#r1" transform="translate(120,200)"/>
    <use xlink:href="#r4" transform="translate(130,200)"/>
    <use xlink:href="#r0" transform="translate(140,200)"/>
    <use xlink:href="#r1" transform="translate(150,200)"/>
    <use xlink:href="#r4" transform="translate(160,200)"/>
    <use xlink:href="#r2" transform="translate(170,200)"/>
    <use xlink:href="#r6" transform="translate(180,200)"/>
    <use xlink:href="#r1" transform="translate(190,200)"/>
    <use xlink:href="#r5" transform="translate(00,210)"/>
    <use xlink:href="#r2" transform="translate(10,210)"/>
    <use xlink:href="#r4" transform="translate(20,210)"/>
    <use xlink:href="#r2" transform="translate(30,210)"/>
    <use xlink:href="#r3" transform="translate(40,210)"/>
    <use xlink:href="#r9" transform="translate(50,210)"/>
    <use xlink:href="#r0" transform="translate(60,210)"/>
    <use xlink:href="#r8" transform="translate(70,210)"/>
    <use xlink:href="#r3" transform="translate(80,210)"/>
    <use xlink:href="#r8" transform="translate(90,210)"/>
    <use xlink:href="#r0" transform="translate(100,210)"/>
    <use xlink:href="#r8" transform="translate(110,210)"/>
    <use xlink:href="#r0" transform="translate(120,210)"/>
    <use xlink:href="#r4" transform="translate(130,210)"/>
    <use xlink:href="#r7" transform="translate(140,210)"/>
    <use xlink:href="#r5" transform="translate(150,210)"/>
    <use xlink:href="#r6" transform="translate(160,210)"/>
    <use xlink:href="#r3" transform="translate(170,210)"/>
    <use xlink:href="#r7" transform="translate(180,210)"/>
    <use xlink:href="#r8" transform="translate(190,210)"/>
    <use xlink:href="#r2" transform="translate(00,220)"/>
    <use xlink:href="#r6" transform="translate(10,220)"/>
    <use xlink:href="#r6" transform="translate(20,220)"/>
    <use xlink:href="#r9" transform="translate(30,220)"/>
    <use xlink:href="#r8" transform="translate(40,220)"/>
    <use xlink:href="#r1" transform="translate(50,220)"/>
    <use xlink:href="#r2" transform="translate(60,220)"/>
    <use xlink:href="#r4" transform="translate(70,220)"/>
    <use xlink:href="#r8" transform="translate(80,220)"/>
    <use xlink:href="#r5" transform="translate(90,220)"/>
    <use xlink:href="#r8" transform="translate(100,220)"/>
    <use xlink:href="#r3" transform="translate(110,220)"/>
    <use xlink:href="#r4" transform="translate(120,220)"/>
    <use xlink:href="#r1" transform="translate(130,220)"/>
    <use xlink:href="#r0" transform="translate(140,220)"/>
    <use xlink:href="#r7" transform="translate(150,220)"/>
    <use xlink:href="#r6" transform="translate(160,220)"/>
    <use xlink:href="#r3" transform="translate(170,220)"/>
    <use xlink:href="#r4" transform="translate(180,220)"/>
    <use xlink:href="#r5" transform="translate(190,220)"/>
    <use xlink:href="#r4" transform="translate(00,230)"/>
    <use xlink:href="#r0" transform="translate(10,230)"/>
    <use xlink:href="#r9" transform="translate(20,230)"/>
    <use xlink:href="#r6" transform="translate(30,230)"/>
    <use xlink:href="#r2" transform="translate(40,230)"/>
    <use xlink:href="#r8" transform="translate(50,230)"/>
    <use xlink:href="#r4" transform="translate(60,230)"/>
    <use xlink:href="#r1" transform="translate(70,230)"/>
    <use xlink:href="#r7" transform="translate(80,230)"/>
    <use xlink:href="#r2" transform="translate(90,230)"/>
    <use xlink:href="#r4" transform="translate(100,230)"/>
    <use xlink:href="#r2" transform="translate(110,230)"/>
    <use xlink:href="#r8" transform="translate(120,230)"/>
    <use xlink:href="#r8" transform="translate(130,230)"/>
    <use xlink:href="#r4" transform="translate(140,230)"/>
    <use xlink:href="#r3" transform="translate(150,230)"/>
    <use xlink:href="#r8" transform="translate(160,230)"/>
    <use xlink:href="#r1" transform="translate(170,230)"/>
    <use xlink:href="#r8" transform="translate(180,230)"/>
    <use xlink:href="#r1" transform="translate(190,230)"/>
    <use xlink:href="#r1" transform="translate(00,240)"/>
    <use xlink:href="#r8" transform="translate(10,240)"/>
    <use xlink:href="#r8" transform="translate(20,240)"/>
    <use xlink:href="#r4" transform="translate(30,240)"/>
    <use xlink:href="#r5" transform="translate(40,240)"/>
    <use xlink:href="#r5" transform="translate(50,240)"/>
    <use xlink:href="#r5" transform="translate(60,240)"/>
    <use xlink:href="#r9" transform="translate(70,240)"/>
    <use xlink:href="#r0" transform="translate(80,240)"/>
    <use xlink:href="#r5" transform="translate(90,240)"/>
    <use xlink:href="#r8" transform="translate(100,240)"/>
    <use xlink:href="#r8" transform="translate(110,240)"/>
    <use xlink:href="#r2" transform="translate(120,240)"/>
    <use xlink:href="#r3" transform="translate(130,240)"/>
    <use xlink:href="#r6" transform="translate(140,240)"/>
    <use xlink:href="#r9" transform="translate(150,240)"/>
    <use xlink:href="#r3" transform="translate(160,240)"/>
    <use xlink:href="#r2" transform="translate(170,240)"/>
    <use xlink:href="#r8" transform="translate(180,240)"/>
    <use xlink:href="#r0" transform="translate(190,240)"/>
    <use xlink:href="#r8" transform="translate(00,250)"/>
    <use xlink:href="#r8" transform="translate(10,250)"/>
    <use xlink:href="#r9" transform="translate(20,250)"/>
    <use xlink:href="#r1" transform="translate(30,250)"/>
    <use xlink:href="#r2" transform="translate(40,250)"/>
    <use xlink:href="#r1" transform="translate(50,250)"/>
    <use xlink:href="#r9" transform="translate(60,250)"/>
    <use xlink:href="#r8" transform="translate(70,250)"/>
    <use xlink:href="#r5" transform="translate(80,250)"/>
    <use xlink:href="#r3" transform="translate(90,250)"/>
    <use xlink:href="#r9" transform="translate(100,250)"/>
    <use xlink:href="#r7" transform="translate(110,250)"/>
    <use xlink:href="#r9" transform="translate(120,250)"/>
    <use xlink:href="#r9" transform="translate(130,250)"/>
    <use xlink:href="#r2" transform="translate(140,250)"/>
    <use xlink:href="#r3" transform="translate(150,250)"/>
    <use xlink:href="#r5" transform="translate(160,250)"/>
    <use xlink:href="#r4" transform="translate(170,250)"/>
    <use xlink:href="#r3" transform="translate(180,250)"/>
    <use xlink:href="#r8" transform="translate(190,250)"/>
    <use xlink:href="#r4" transform="translate(00,260)"/>
    <use xlink:href="#r0" transform="translate(10,260)"/>
    <use xlink:href="#r7" transform="translate(20,260)"/>
    <use xlink:href="#r3" transform="translate(30,260)"/>
    <use xlink:href="#r3" transform="translate(40,260)"/>
    <use xlink:href="#r4" transform="translate(50,260)"/>
    <use xlink:href="#r8" transform="translate(60,260)"/>
    <use xlink:href="#r9" transform="translate(70,260)"/>
    <use xlink:href="#r3" transform="translate(80,260)"/>
    <use xlink:href="#r8" transform="translate(90,260)"/>
    <use xlink:href="#r9" transform="translate(100,260)"/>
    <use xlink:href="#r8" transform="translate(110,260)"/>
    <use xlink:href="#r6" transform="translate(120,260)"/>
    <use xlink:href="#r5" transform="translate(130,260)"/>
    <use xlink:href="#r1" transform="translate(140,260)"/>
    <use xlink:href="#r2" transform="translate(150,260)"/>
    <use xlink:href="#r5" transform="translate(160,260)"/>
    <use xlink:href="#r7" transform="translate(170,260)"/>
    <use xlink:href="#r4" transform="translate(180,260)"/>
    <use xlink:href="#r9" transform="translate(190,260)"/>
    <use xlink:href="#r2" transform="translate(00,270)"/>
    <use xlink:href="#r0" transform="translate(10,270)"/>
    <use xlink:href="#r6" transform="translate(20,270)"/>
    <use xlink:href="#r0" transform="translate(30,270)"/>
    <use xlink:href="#r7" transform="translate(40,270)"/>
    <use xlink:href="#r3" transform="translate(50,270)"/>
    <use xlink:href="#r0" transform="translate(60,270)"/>
    <use xlink:href="#r4" transform="translate(70,270)"/>
    <use xlink:href="#r0" transform="translate(80,270)"/>
    <use xlink:href="#r6" transform="translate(90,270)"/>
    <use xlink:href="#r2" transform="translate(100,270)"/>
    <use xlink:href="#r3" transform="translate(110,270)"/>
    <use xlink:href="#r1" transform="translate(120,270)"/>
    <use xlink:href="#r7" transform="translate(130,270)"/>
    <use xlink:href="#r1" transform="translate(140,270)"/>
    <use xlink:href="#r1" transform="translate(150,270)"/>
    <use xlink:href="#r0" transform="translate(160,270)"/>
    <use xlink:href="#r4" transform="translate(170,270)"/>
    <use xlink:href="#r6" transform="translate(180,270)"/>
    <use xlink:href="#r6" transform="translate(190,270)"/>
    <use xlink:href="#r3" transform="translate(00,280)"/>
    <use xlink:href="#r9" transform="translate(10,280)"/>
    <use xlink:href="#r7" transform="translate(20,280)"/>
    <use xlink:href="#r2" transform="translate(30,280)"/>
    <use xlink:href="#r2" transform="translate(40,280)"/>
    <use xlink:href="#r6" transform="translate(50,280)"/>
    <use xlink:href="#r0" transform="translate(60,280)"/>
    <use xlink:href="#r2" transform="translate(70,280)"/>
    <use xlink:href="#r6" transform="translate(80,280)"/>
    <use xlink:href="#r1" transform="translate(90,280)"/>
    <use xlink:href="#r4" transform="translate(100,280)"/>
    <use xlink:href="#r2" transform="translate(110,280)"/>
    <use xlink:href="#r1" transform="translate(120,280)"/>
    <use xlink:href="#r1" transform="translate(130,280)"/>
    <use xlink:href="#r2" transform="translate(140,280)"/>
    <use xlink:href="#r8" transform="translate(150,280)"/>
    <use xlink:href="#r4" transform="translate(160,280)"/>
    <use xlink:href="#r9" transform="translate(170,280)"/>
    <use xlink:href="#r5" transform="translate(180,280)"/>
    <use xlink:href="#r7" transform="translate(190,280)"/>
    <use xlink:href="#r4" transform="translate(00,290)"/>
    <use xlink:href="#r0" transform="translate(10,290)"/>
    <use xlink:href="#r3" transform="translate(20,290)"/>
    <use xlink:href="#r8" transform="translate(30,290)"/>
    <use xlink:href="#r5" transform="translate(40,290)"/>
    <use xlink:href="#r5" transform="translate(50,290)"/>
    <use xlink:href="#r8" transform="translate(60,290)"/>
    <use xlink:href="#r8" transform="translate(70,290)"/>
    <use xlink:href="#r2" transform="translate(80,290)"/>
    <use xlink:href="#r5" transform="translate(90,290)"/>
    <use xlink:href="#r5" transform="translate(100,290)"/>
    <use xlink:href="#r9" transform="translate(110,290)"/>
    <use xlink:href="#r1" transform="translate(120,290)"/>
    <use xlink:href="#r3" transform="translate(130,290)"/>
    <use xlink:href="#r8" transform="translate(140,290)"/>
    <use xlink:href="#r4" transform="translate(150,290)"/>
    <use xlink:href="#r4" transform="translate(160,290)"/>
    <use xlink:href="#r5" transform="translate(170,290)"/>
    <use xlink:href="#r5" transform="translate(180,290)"/>
    <use xlink:href="#r1" transform="translate(190,290)"/>
  </g>
</svg>
